# xmcd
#
# Track frame offsets: 
#        150
#        20551
#        38076
#        55872
#        78344
#        93710
#        111001
#        122761
#        137628
#        154383
#        172391
#        189096
#        204861
#        217463
#        227932
#        248068
#
# Disc length: 3616 seconds
#
# Revision: 0
# Processed by: cddbd v1.5.2PL0 Copyright (c) Steve Scherf et al.
# Submitted via: ExactAudioCopyFreeDBPlugin 1.0
#
DISCID=e40e1e10
DTITLE=Azealia Banks - Broke With Expensive Taste
DYEAR=2011
DGENRE=Rap
TTITLE0=Idle Delilah
TTITLE1=Gimme A Chance
TTITLE2=Desperado
TTITLE3=JFK Feat. Theophilus London
TTITLE4=212 Feat. Lazy Jay
TTITLE5=Wallace
TTITLE6=Heavy Metal And Reflective
TTITLE7=Bbd
TTITLE8=Ice Princess
TTITLE9=Yung Rapunxel
TTITLE10=Soda
TTITLE11=Chasing Time
TTITLE12=Luxury
TTITLE13=Nude Beach A-Go-Go
TTITLE14=Miss Amor
TTITLE15=Miss Camaraderie
EXTD=
EXTT0=
EXTT1=
EXTT2=
EXTT3=
EXTT4=
EXTT5=
EXTT6=
EXTT7=
EXTT8=
EXTT9=
EXTT10=
EXTT11=
EXTT12=
EXTT13=
EXTT14=
EXTT15=
PLAYORDER=
